<mxfile host="Electron" modified="2024-02-23T15:59:37.715Z" agent="Mozilla/5.0 (Windows NT 10.0; Win64; x64) AppleWebKit/537.36 (KHTML, like Gecko) draw.io/23.1.5 Chrome/120.0.6099.109 Electron/28.1.0 Safari/537.36" etag="REuwp2RgSBAMz9-6SQ6S" version="23.1.5" type="device">
  <diagram name="Page-1" id="bvBqd4YiS44uZ-rKz8OZ">
    <mxGraphModel dx="2666" dy="1069" grid="1" gridSize="10" guides="1" tooltips="1" connect="1" arrows="1" fold="1" page="1" pageScale="1" pageWidth="827" pageHeight="1169" math="0" shadow="0">
      <root>
        <mxCell id="0" />
        <mxCell id="1" parent="0" />
        <mxCell id="pTTNuhvIKUyOt209v0Gt-5" value="&lt;b&gt;PGBS - Power &amp;amp; Gas Balancing System&lt;/b&gt;" style="rounded=0;whiteSpace=wrap;html=1;" vertex="1" parent="1">
          <mxGeometry x="730" y="10" width="180" height="60" as="geometry" />
        </mxCell>
        <mxCell id="pTTNuhvIKUyOt209v0Gt-120" value="" style="group" vertex="1" connectable="0" parent="1">
          <mxGeometry x="30" y="200" width="720" height="800" as="geometry" />
        </mxCell>
        <mxCell id="pTTNuhvIKUyOt209v0Gt-12" value="" style="group" vertex="1" connectable="0" parent="pTTNuhvIKUyOt209v0Gt-120">
          <mxGeometry x="160" y="100" width="110" height="110" as="geometry" />
        </mxCell>
        <mxCell id="pTTNuhvIKUyOt209v0Gt-3" value="Unique Account" style="rounded=0;whiteSpace=wrap;html=1;" vertex="1" parent="pTTNuhvIKUyOt209v0Gt-12">
          <mxGeometry y="50" width="110" height="60" as="geometry" />
        </mxCell>
        <mxCell id="pTTNuhvIKUyOt209v0Gt-96" value="" style="endArrow=classic;html=1;rounded=0;" edge="1" parent="pTTNuhvIKUyOt209v0Gt-120">
          <mxGeometry width="50" height="50" relative="1" as="geometry">
            <mxPoint x="214.5" y="210" as="sourcePoint" />
            <mxPoint x="215" y="240" as="targetPoint" />
          </mxGeometry>
        </mxCell>
        <mxCell id="pTTNuhvIKUyOt209v0Gt-98" value="" style="group" vertex="1" connectable="0" parent="pTTNuhvIKUyOt209v0Gt-120">
          <mxGeometry y="240" width="410" height="220" as="geometry" />
        </mxCell>
        <mxCell id="pTTNuhvIKUyOt209v0Gt-8" value="Balance Overview" style="rounded=0;whiteSpace=wrap;html=1;" vertex="1" parent="pTTNuhvIKUyOt209v0Gt-98">
          <mxGeometry x="151.25" width="120" height="60" as="geometry" />
        </mxCell>
        <mxCell id="pTTNuhvIKUyOt209v0Gt-67" value="" style="group" vertex="1" connectable="0" parent="pTTNuhvIKUyOt209v0Gt-98">
          <mxGeometry y="90" width="120" height="130" as="geometry" />
        </mxCell>
        <mxCell id="pTTNuhvIKUyOt209v0Gt-68" value="Grid Input / Output" style="rounded=0;whiteSpace=wrap;html=1;" vertex="1" parent="pTTNuhvIKUyOt209v0Gt-67">
          <mxGeometry x="11.25" width="100" height="30" as="geometry" />
        </mxCell>
        <mxCell id="pTTNuhvIKUyOt209v0Gt-69" value="Current" style="rounded=0;whiteSpace=wrap;html=1;horizontal=0;" vertex="1" parent="pTTNuhvIKUyOt209v0Gt-67">
          <mxGeometry x="15.629999999999995" y="70" width="27.5" height="60" as="geometry" />
        </mxCell>
        <mxCell id="pTTNuhvIKUyOt209v0Gt-70" value="" style="shape=curlyBracket;whiteSpace=wrap;html=1;rounded=1;labelPosition=left;verticalLabelPosition=middle;align=right;verticalAlign=middle;rotation=90;" vertex="1" parent="pTTNuhvIKUyOt209v0Gt-67">
          <mxGeometry x="40" y="-10" width="40" height="120" as="geometry" />
        </mxCell>
        <mxCell id="pTTNuhvIKUyOt209v0Gt-71" value="Historic" style="rounded=0;whiteSpace=wrap;html=1;horizontal=0;" vertex="1" parent="pTTNuhvIKUyOt209v0Gt-67">
          <mxGeometry x="49.379999999999995" y="70" width="27.5" height="60" as="geometry" />
        </mxCell>
        <mxCell id="pTTNuhvIKUyOt209v0Gt-72" value="Futures" style="rounded=0;whiteSpace=wrap;html=1;horizontal=0;" vertex="1" parent="pTTNuhvIKUyOt209v0Gt-67">
          <mxGeometry x="76.88" y="70" width="27.5" height="60" as="geometry" />
        </mxCell>
        <mxCell id="pTTNuhvIKUyOt209v0Gt-74" value="" style="group" vertex="1" connectable="0" parent="pTTNuhvIKUyOt209v0Gt-98">
          <mxGeometry x="290" y="90" width="120" height="130" as="geometry" />
        </mxCell>
        <mxCell id="pTTNuhvIKUyOt209v0Gt-75" value="Market Trades" style="rounded=0;whiteSpace=wrap;html=1;" vertex="1" parent="pTTNuhvIKUyOt209v0Gt-74">
          <mxGeometry x="11.25" width="100" height="30" as="geometry" />
        </mxCell>
        <mxCell id="pTTNuhvIKUyOt209v0Gt-76" value="Current" style="rounded=0;whiteSpace=wrap;html=1;horizontal=0;" vertex="1" parent="pTTNuhvIKUyOt209v0Gt-74">
          <mxGeometry x="15.629999999999995" y="70" width="27.5" height="60" as="geometry" />
        </mxCell>
        <mxCell id="pTTNuhvIKUyOt209v0Gt-77" value="" style="shape=curlyBracket;whiteSpace=wrap;html=1;rounded=1;labelPosition=left;verticalLabelPosition=middle;align=right;verticalAlign=middle;rotation=90;" vertex="1" parent="pTTNuhvIKUyOt209v0Gt-74">
          <mxGeometry x="40" y="-10" width="40" height="120" as="geometry" />
        </mxCell>
        <mxCell id="pTTNuhvIKUyOt209v0Gt-78" value="Historic" style="rounded=0;whiteSpace=wrap;html=1;horizontal=0;" vertex="1" parent="pTTNuhvIKUyOt209v0Gt-74">
          <mxGeometry x="49.379999999999995" y="70" width="27.5" height="60" as="geometry" />
        </mxCell>
        <mxCell id="pTTNuhvIKUyOt209v0Gt-79" value="Futures" style="rounded=0;whiteSpace=wrap;html=1;horizontal=0;" vertex="1" parent="pTTNuhvIKUyOt209v0Gt-74">
          <mxGeometry x="76.88" y="70" width="27.5" height="60" as="geometry" />
        </mxCell>
        <mxCell id="pTTNuhvIKUyOt209v0Gt-81" value="" style="group" vertex="1" connectable="0" parent="pTTNuhvIKUyOt209v0Gt-98">
          <mxGeometry x="150" y="90" width="120" height="130" as="geometry" />
        </mxCell>
        <mxCell id="pTTNuhvIKUyOt209v0Gt-82" value="Counterparty Trades" style="rounded=0;whiteSpace=wrap;html=1;" vertex="1" parent="pTTNuhvIKUyOt209v0Gt-81">
          <mxGeometry x="11.25" width="100" height="30" as="geometry" />
        </mxCell>
        <mxCell id="pTTNuhvIKUyOt209v0Gt-83" value="Current" style="rounded=0;whiteSpace=wrap;html=1;horizontal=0;" vertex="1" parent="pTTNuhvIKUyOt209v0Gt-81">
          <mxGeometry x="15.629999999999995" y="70" width="27.5" height="60" as="geometry" />
        </mxCell>
        <mxCell id="pTTNuhvIKUyOt209v0Gt-84" value="" style="shape=curlyBracket;whiteSpace=wrap;html=1;rounded=1;labelPosition=left;verticalLabelPosition=middle;align=right;verticalAlign=middle;rotation=90;" vertex="1" parent="pTTNuhvIKUyOt209v0Gt-81">
          <mxGeometry x="40" y="-10" width="40" height="120" as="geometry" />
        </mxCell>
        <mxCell id="pTTNuhvIKUyOt209v0Gt-85" value="Historic" style="rounded=0;whiteSpace=wrap;html=1;horizontal=0;" vertex="1" parent="pTTNuhvIKUyOt209v0Gt-81">
          <mxGeometry x="49.379999999999995" y="70" width="27.5" height="60" as="geometry" />
        </mxCell>
        <mxCell id="pTTNuhvIKUyOt209v0Gt-86" value="Futures" style="rounded=0;whiteSpace=wrap;html=1;horizontal=0;" vertex="1" parent="pTTNuhvIKUyOt209v0Gt-81">
          <mxGeometry x="76.88" y="70" width="27.5" height="60" as="geometry" />
        </mxCell>
        <mxCell id="pTTNuhvIKUyOt209v0Gt-87" value="" style="endArrow=classic;html=1;rounded=0;entryX=0.75;entryY=0;entryDx=0;entryDy=0;exitX=0.5;exitY=1;exitDx=0;exitDy=0;" edge="1" parent="pTTNuhvIKUyOt209v0Gt-98" target="pTTNuhvIKUyOt209v0Gt-82" source="pTTNuhvIKUyOt209v0Gt-8">
          <mxGeometry width="50" height="50" relative="1" as="geometry">
            <mxPoint x="316.88" y="60" as="sourcePoint" />
            <mxPoint x="276.88" y="110" as="targetPoint" />
          </mxGeometry>
        </mxCell>
        <mxCell id="pTTNuhvIKUyOt209v0Gt-80" value="" style="endArrow=classic;html=1;rounded=0;entryX=0.75;entryY=0;entryDx=0;entryDy=0;exitX=0.833;exitY=1.067;exitDx=0;exitDy=0;exitPerimeter=0;" edge="1" parent="pTTNuhvIKUyOt209v0Gt-98">
          <mxGeometry width="50" height="50" relative="1" as="geometry">
            <mxPoint x="270.00000000000006" y="60" as="sourcePoint" />
            <mxPoint x="366.29" y="85.98000000000002" as="targetPoint" />
          </mxGeometry>
        </mxCell>
        <mxCell id="pTTNuhvIKUyOt209v0Gt-73" value="" style="endArrow=classic;html=1;rounded=0;entryX=0.75;entryY=0;entryDx=0;entryDy=0;exitX=0;exitY=1;exitDx=0;exitDy=0;" edge="1" parent="pTTNuhvIKUyOt209v0Gt-98" target="pTTNuhvIKUyOt209v0Gt-68" source="pTTNuhvIKUyOt209v0Gt-8">
          <mxGeometry width="50" height="50" relative="1" as="geometry">
            <mxPoint x="116.88" y="60" as="sourcePoint" />
            <mxPoint x="76.88" y="110" as="targetPoint" />
          </mxGeometry>
        </mxCell>
        <mxCell id="pTTNuhvIKUyOt209v0Gt-94" value="" style="endArrow=classic;html=1;rounded=0;fillColor=#008a00;strokeColor=#005700;" edge="1" parent="pTTNuhvIKUyOt209v0Gt-98">
          <mxGeometry width="50" height="50" relative="1" as="geometry">
            <mxPoint x="270" y="29.5" as="sourcePoint" />
            <mxPoint x="370" y="-40" as="targetPoint" />
          </mxGeometry>
        </mxCell>
        <mxCell id="pTTNuhvIKUyOt209v0Gt-101" value="" style="group" vertex="1" connectable="0" parent="pTTNuhvIKUyOt209v0Gt-120">
          <mxGeometry x="450" y="150" width="270" height="220" as="geometry" />
        </mxCell>
        <mxCell id="pTTNuhvIKUyOt209v0Gt-14" value="System Information" style="rounded=0;whiteSpace=wrap;html=1;" vertex="1" parent="pTTNuhvIKUyOt209v0Gt-101">
          <mxGeometry x="100" width="70" height="60" as="geometry" />
        </mxCell>
        <mxCell id="pTTNuhvIKUyOt209v0Gt-41" value="" style="group" vertex="1" connectable="0" parent="pTTNuhvIKUyOt209v0Gt-101">
          <mxGeometry x="150" y="90" width="120" height="130" as="geometry" />
        </mxCell>
        <mxCell id="pTTNuhvIKUyOt209v0Gt-18" value="Market Prices" style="rounded=0;whiteSpace=wrap;html=1;" vertex="1" parent="pTTNuhvIKUyOt209v0Gt-41">
          <mxGeometry x="11.25" width="100" height="30" as="geometry" />
        </mxCell>
        <mxCell id="pTTNuhvIKUyOt209v0Gt-20" value="Current" style="rounded=0;whiteSpace=wrap;html=1;horizontal=0;" vertex="1" parent="pTTNuhvIKUyOt209v0Gt-41">
          <mxGeometry x="15.629999999999995" y="70" width="27.5" height="60" as="geometry" />
        </mxCell>
        <mxCell id="pTTNuhvIKUyOt209v0Gt-35" value="" style="shape=curlyBracket;whiteSpace=wrap;html=1;rounded=1;labelPosition=left;verticalLabelPosition=middle;align=right;verticalAlign=middle;rotation=90;" vertex="1" parent="pTTNuhvIKUyOt209v0Gt-41">
          <mxGeometry x="40" y="-10" width="40" height="120" as="geometry" />
        </mxCell>
        <mxCell id="pTTNuhvIKUyOt209v0Gt-39" value="Historic" style="rounded=0;whiteSpace=wrap;html=1;horizontal=0;" vertex="1" parent="pTTNuhvIKUyOt209v0Gt-41">
          <mxGeometry x="49.379999999999995" y="70" width="27.5" height="60" as="geometry" />
        </mxCell>
        <mxCell id="pTTNuhvIKUyOt209v0Gt-40" value="Futures" style="rounded=0;whiteSpace=wrap;html=1;horizontal=0;" vertex="1" parent="pTTNuhvIKUyOt209v0Gt-41">
          <mxGeometry x="76.88" y="70" width="27.5" height="60" as="geometry" />
        </mxCell>
        <mxCell id="pTTNuhvIKUyOt209v0Gt-42" value="" style="group" vertex="1" connectable="0" parent="pTTNuhvIKUyOt209v0Gt-101">
          <mxGeometry y="90" width="120" height="130" as="geometry" />
        </mxCell>
        <mxCell id="pTTNuhvIKUyOt209v0Gt-43" value="Grid State" style="rounded=0;whiteSpace=wrap;html=1;" vertex="1" parent="pTTNuhvIKUyOt209v0Gt-42">
          <mxGeometry x="11.25" width="100" height="30" as="geometry" />
        </mxCell>
        <mxCell id="pTTNuhvIKUyOt209v0Gt-44" value="Current" style="rounded=0;whiteSpace=wrap;html=1;horizontal=0;" vertex="1" parent="pTTNuhvIKUyOt209v0Gt-42">
          <mxGeometry x="15.629999999999995" y="70" width="27.5" height="60" as="geometry" />
        </mxCell>
        <mxCell id="pTTNuhvIKUyOt209v0Gt-45" value="" style="shape=curlyBracket;whiteSpace=wrap;html=1;rounded=1;labelPosition=left;verticalLabelPosition=middle;align=right;verticalAlign=middle;rotation=90;" vertex="1" parent="pTTNuhvIKUyOt209v0Gt-42">
          <mxGeometry x="40" y="-10" width="40" height="120" as="geometry" />
        </mxCell>
        <mxCell id="pTTNuhvIKUyOt209v0Gt-46" value="Historic" style="rounded=0;whiteSpace=wrap;html=1;horizontal=0;" vertex="1" parent="pTTNuhvIKUyOt209v0Gt-42">
          <mxGeometry x="49.379999999999995" y="70" width="27.5" height="60" as="geometry" />
        </mxCell>
        <mxCell id="pTTNuhvIKUyOt209v0Gt-47" value="Futures" style="rounded=0;whiteSpace=wrap;html=1;horizontal=0;" vertex="1" parent="pTTNuhvIKUyOt209v0Gt-42">
          <mxGeometry x="76.88" y="70" width="27.5" height="60" as="geometry" />
        </mxCell>
        <mxCell id="pTTNuhvIKUyOt209v0Gt-48" value="" style="endArrow=classic;html=1;rounded=0;entryX=0.75;entryY=0;entryDx=0;entryDy=0;" edge="1" parent="pTTNuhvIKUyOt209v0Gt-42" target="pTTNuhvIKUyOt209v0Gt-43">
          <mxGeometry width="50" height="50" relative="1" as="geometry">
            <mxPoint x="116.88" y="-30" as="sourcePoint" />
            <mxPoint x="76.88" y="20" as="targetPoint" />
          </mxGeometry>
        </mxCell>
        <mxCell id="pTTNuhvIKUyOt209v0Gt-50" value="" style="endArrow=classic;html=1;rounded=0;entryX=0.25;entryY=0;entryDx=0;entryDy=0;exitX=0.75;exitY=1;exitDx=0;exitDy=0;" edge="1" parent="pTTNuhvIKUyOt209v0Gt-101" source="pTTNuhvIKUyOt209v0Gt-14" target="pTTNuhvIKUyOt209v0Gt-18">
          <mxGeometry width="50" height="50" relative="1" as="geometry">
            <mxPoint x="170" y="70" as="sourcePoint" />
            <mxPoint x="113" y="90" as="targetPoint" />
          </mxGeometry>
        </mxCell>
        <mxCell id="pTTNuhvIKUyOt209v0Gt-95" value="" style="endArrow=classic;html=1;rounded=0;fillColor=#008a00;strokeColor=#005700;" edge="1" parent="pTTNuhvIKUyOt209v0Gt-101">
          <mxGeometry width="50" height="50" relative="1" as="geometry">
            <mxPoint x="100" y="20" as="sourcePoint" />
            <mxPoint x="-80" y="50" as="targetPoint" />
          </mxGeometry>
        </mxCell>
        <mxCell id="pTTNuhvIKUyOt209v0Gt-178" value="API calling" style="text;html=1;align=center;verticalAlign=middle;whiteSpace=wrap;rounded=0;fillColor=#a20025;fontColor=#ffffff;strokeColor=#6F0000;" vertex="1" parent="pTTNuhvIKUyOt209v0Gt-101">
          <mxGeometry x="120" y="50" width="30" height="40" as="geometry" />
        </mxCell>
        <mxCell id="pTTNuhvIKUyOt209v0Gt-108" value="" style="endArrow=classic;html=1;rounded=0;" edge="1" parent="pTTNuhvIKUyOt209v0Gt-120">
          <mxGeometry width="50" height="50" relative="1" as="geometry">
            <mxPoint x="330" y="100" as="sourcePoint" />
            <mxPoint x="220" y="150" as="targetPoint" />
          </mxGeometry>
        </mxCell>
        <mxCell id="pTTNuhvIKUyOt209v0Gt-109" value="" style="endArrow=classic;html=1;rounded=0;entryX=0.5;entryY=0;entryDx=0;entryDy=0;" edge="1" parent="pTTNuhvIKUyOt209v0Gt-120" target="pTTNuhvIKUyOt209v0Gt-14">
          <mxGeometry width="50" height="50" relative="1" as="geometry">
            <mxPoint x="370" y="100" as="sourcePoint" />
            <mxPoint x="260" y="150" as="targetPoint" />
          </mxGeometry>
        </mxCell>
        <mxCell id="pTTNuhvIKUyOt209v0Gt-111" value="" style="endArrow=classic;html=1;rounded=0;fillColor=#008a00;strokeColor=#005700;" edge="1" parent="pTTNuhvIKUyOt209v0Gt-120">
          <mxGeometry width="50" height="50" relative="1" as="geometry">
            <mxPoint x="369" y="200" as="sourcePoint" />
            <mxPoint x="530" y="660" as="targetPoint" />
          </mxGeometry>
        </mxCell>
        <mxCell id="pTTNuhvIKUyOt209v0Gt-116" value="" style="shape=curlyBracket;whiteSpace=wrap;html=1;rounded=1;labelPosition=left;verticalLabelPosition=middle;align=right;verticalAlign=middle;rotation=-90;size=0.5;" vertex="1" parent="pTTNuhvIKUyOt209v0Gt-120">
          <mxGeometry x="127.5" y="300" width="155" height="410" as="geometry" />
        </mxCell>
        <mxCell id="pTTNuhvIKUyOt209v0Gt-118" value="&lt;h1&gt;Nomination Interface&lt;/h1&gt;&lt;p&gt;&lt;/p&gt;&lt;ul&gt;&lt;li&gt;User uploades data to update their balance overview&lt;/li&gt;&lt;/ul&gt;&lt;p&gt;&lt;/p&gt;" style="text;html=1;spacing=5;spacingTop=-20;whiteSpace=wrap;overflow=hidden;rounded=0;align=center;fillColor=#0050ef;fontColor=#ffffff;strokeColor=#001DBC;" vertex="1" parent="pTTNuhvIKUyOt209v0Gt-120">
          <mxGeometry x="70" y="530" width="270" height="90" as="geometry" />
        </mxCell>
        <mxCell id="pTTNuhvIKUyOt209v0Gt-119" value="&lt;h1&gt;Notification Interface&lt;/h1&gt;&lt;p&gt;&lt;/p&gt;&lt;ul&gt;&lt;li&gt;The system compiles user balance against systen state and notifies user of imbalances&lt;/li&gt;&lt;li&gt;Pricing notifications&lt;/li&gt;&lt;li&gt;System State notification&lt;/li&gt;&lt;/ul&gt;&lt;p&gt;&lt;/p&gt;" style="text;html=1;spacing=5;spacingTop=-20;whiteSpace=wrap;overflow=hidden;rounded=0;align=center;fillColor=#008a00;fontColor=#ffffff;strokeColor=#005700;" vertex="1" parent="pTTNuhvIKUyOt209v0Gt-120">
          <mxGeometry x="390" y="660" width="270" height="140" as="geometry" />
        </mxCell>
        <mxCell id="pTTNuhvIKUyOt209v0Gt-102" value="Sign In / Create Account" style="rounded=0;whiteSpace=wrap;html=1;" vertex="1" parent="pTTNuhvIKUyOt209v0Gt-120">
          <mxGeometry x="282.5" y="40" width="120" height="60" as="geometry" />
        </mxCell>
        <mxCell id="pTTNuhvIKUyOt209v0Gt-103" value="Gas Side" style="rounded=0;whiteSpace=wrap;html=1;" vertex="1" parent="pTTNuhvIKUyOt209v0Gt-120">
          <mxGeometry x="282.5" y="-50" width="120" height="60" as="geometry" />
        </mxCell>
        <mxCell id="pTTNuhvIKUyOt209v0Gt-16" value="Balancing mechanism - 24 Hours" style="shape=crossbar;whiteSpace=wrap;html=1;rounded=1;verticalAlign=top;fontColor=#FF0000;" vertex="1" parent="pTTNuhvIKUyOt209v0Gt-120">
          <mxGeometry x="179" y="-80" width="310" height="40" as="geometry" />
        </mxCell>
        <mxCell id="pTTNuhvIKUyOt209v0Gt-121" value="" style="endArrow=classic;html=1;rounded=0;" edge="1" parent="pTTNuhvIKUyOt209v0Gt-120">
          <mxGeometry width="50" height="50" relative="1" as="geometry">
            <mxPoint x="340" y="10" as="sourcePoint" />
            <mxPoint x="340" y="40" as="targetPoint" />
          </mxGeometry>
        </mxCell>
        <mxCell id="pTTNuhvIKUyOt209v0Gt-181" value="Very detailed user set-up&lt;br&gt;&lt;ul&gt;&lt;li&gt;location based Grid input/output&lt;/li&gt;&lt;/ul&gt;" style="text;html=1;align=center;verticalAlign=middle;whiteSpace=wrap;rounded=0;fillColor=#6a00ff;fontColor=#ffffff;strokeColor=#3700CC;" vertex="1" parent="pTTNuhvIKUyOt209v0Gt-120">
          <mxGeometry x="390" y="30" width="180" height="60" as="geometry" />
        </mxCell>
        <mxCell id="pTTNuhvIKUyOt209v0Gt-182" value="" style="group" vertex="1" connectable="0" parent="1">
          <mxGeometry x="870" y="200" width="720" height="800" as="geometry" />
        </mxCell>
        <mxCell id="pTTNuhvIKUyOt209v0Gt-183" value="" style="group" vertex="1" connectable="0" parent="pTTNuhvIKUyOt209v0Gt-182">
          <mxGeometry x="160" y="100" width="110" height="110" as="geometry" />
        </mxCell>
        <mxCell id="pTTNuhvIKUyOt209v0Gt-184" value="Unique Account" style="rounded=0;whiteSpace=wrap;html=1;" vertex="1" parent="pTTNuhvIKUyOt209v0Gt-183">
          <mxGeometry y="50" width="110" height="60" as="geometry" />
        </mxCell>
        <mxCell id="pTTNuhvIKUyOt209v0Gt-185" value="" style="endArrow=classic;html=1;rounded=0;" edge="1" parent="pTTNuhvIKUyOt209v0Gt-182">
          <mxGeometry width="50" height="50" relative="1" as="geometry">
            <mxPoint x="214.5" y="210" as="sourcePoint" />
            <mxPoint x="215" y="240" as="targetPoint" />
          </mxGeometry>
        </mxCell>
        <mxCell id="pTTNuhvIKUyOt209v0Gt-186" value="" style="group" vertex="1" connectable="0" parent="pTTNuhvIKUyOt209v0Gt-182">
          <mxGeometry y="240" width="410" height="220" as="geometry" />
        </mxCell>
        <mxCell id="pTTNuhvIKUyOt209v0Gt-187" value="Balance Overview" style="rounded=0;whiteSpace=wrap;html=1;" vertex="1" parent="pTTNuhvIKUyOt209v0Gt-186">
          <mxGeometry x="151.25" width="120" height="60" as="geometry" />
        </mxCell>
        <mxCell id="pTTNuhvIKUyOt209v0Gt-188" value="" style="group" vertex="1" connectable="0" parent="pTTNuhvIKUyOt209v0Gt-186">
          <mxGeometry y="90" width="120" height="130" as="geometry" />
        </mxCell>
        <mxCell id="pTTNuhvIKUyOt209v0Gt-189" value="Grid Input / Output" style="rounded=0;whiteSpace=wrap;html=1;" vertex="1" parent="pTTNuhvIKUyOt209v0Gt-188">
          <mxGeometry x="11.25" width="100" height="30" as="geometry" />
        </mxCell>
        <mxCell id="pTTNuhvIKUyOt209v0Gt-190" value="Current" style="rounded=0;whiteSpace=wrap;html=1;horizontal=0;" vertex="1" parent="pTTNuhvIKUyOt209v0Gt-188">
          <mxGeometry x="15.629999999999995" y="70" width="27.5" height="60" as="geometry" />
        </mxCell>
        <mxCell id="pTTNuhvIKUyOt209v0Gt-191" value="" style="shape=curlyBracket;whiteSpace=wrap;html=1;rounded=1;labelPosition=left;verticalLabelPosition=middle;align=right;verticalAlign=middle;rotation=90;" vertex="1" parent="pTTNuhvIKUyOt209v0Gt-188">
          <mxGeometry x="40" y="-10" width="40" height="120" as="geometry" />
        </mxCell>
        <mxCell id="pTTNuhvIKUyOt209v0Gt-192" value="Historic" style="rounded=0;whiteSpace=wrap;html=1;horizontal=0;" vertex="1" parent="pTTNuhvIKUyOt209v0Gt-188">
          <mxGeometry x="49.379999999999995" y="70" width="27.5" height="60" as="geometry" />
        </mxCell>
        <mxCell id="pTTNuhvIKUyOt209v0Gt-193" value="Futures" style="rounded=0;whiteSpace=wrap;html=1;horizontal=0;" vertex="1" parent="pTTNuhvIKUyOt209v0Gt-188">
          <mxGeometry x="76.88" y="70" width="27.5" height="60" as="geometry" />
        </mxCell>
        <mxCell id="pTTNuhvIKUyOt209v0Gt-194" value="" style="group" vertex="1" connectable="0" parent="pTTNuhvIKUyOt209v0Gt-186">
          <mxGeometry x="290" y="90" width="120" height="130" as="geometry" />
        </mxCell>
        <mxCell id="pTTNuhvIKUyOt209v0Gt-195" value="Market Trades" style="rounded=0;whiteSpace=wrap;html=1;" vertex="1" parent="pTTNuhvIKUyOt209v0Gt-194">
          <mxGeometry x="11.25" width="100" height="30" as="geometry" />
        </mxCell>
        <mxCell id="pTTNuhvIKUyOt209v0Gt-196" value="Current" style="rounded=0;whiteSpace=wrap;html=1;horizontal=0;" vertex="1" parent="pTTNuhvIKUyOt209v0Gt-194">
          <mxGeometry x="15.629999999999995" y="70" width="27.5" height="60" as="geometry" />
        </mxCell>
        <mxCell id="pTTNuhvIKUyOt209v0Gt-197" value="" style="shape=curlyBracket;whiteSpace=wrap;html=1;rounded=1;labelPosition=left;verticalLabelPosition=middle;align=right;verticalAlign=middle;rotation=90;" vertex="1" parent="pTTNuhvIKUyOt209v0Gt-194">
          <mxGeometry x="40" y="-10" width="40" height="120" as="geometry" />
        </mxCell>
        <mxCell id="pTTNuhvIKUyOt209v0Gt-198" value="Historic" style="rounded=0;whiteSpace=wrap;html=1;horizontal=0;" vertex="1" parent="pTTNuhvIKUyOt209v0Gt-194">
          <mxGeometry x="49.379999999999995" y="70" width="27.5" height="60" as="geometry" />
        </mxCell>
        <mxCell id="pTTNuhvIKUyOt209v0Gt-199" value="Futures" style="rounded=0;whiteSpace=wrap;html=1;horizontal=0;" vertex="1" parent="pTTNuhvIKUyOt209v0Gt-194">
          <mxGeometry x="76.88" y="70" width="27.5" height="60" as="geometry" />
        </mxCell>
        <mxCell id="pTTNuhvIKUyOt209v0Gt-200" value="" style="group" vertex="1" connectable="0" parent="pTTNuhvIKUyOt209v0Gt-186">
          <mxGeometry x="150" y="90" width="120" height="130" as="geometry" />
        </mxCell>
        <mxCell id="pTTNuhvIKUyOt209v0Gt-201" value="Counterparty Trades" style="rounded=0;whiteSpace=wrap;html=1;" vertex="1" parent="pTTNuhvIKUyOt209v0Gt-200">
          <mxGeometry x="11.25" width="100" height="30" as="geometry" />
        </mxCell>
        <mxCell id="pTTNuhvIKUyOt209v0Gt-202" value="Current" style="rounded=0;whiteSpace=wrap;html=1;horizontal=0;" vertex="1" parent="pTTNuhvIKUyOt209v0Gt-200">
          <mxGeometry x="15.629999999999995" y="70" width="27.5" height="60" as="geometry" />
        </mxCell>
        <mxCell id="pTTNuhvIKUyOt209v0Gt-203" value="" style="shape=curlyBracket;whiteSpace=wrap;html=1;rounded=1;labelPosition=left;verticalLabelPosition=middle;align=right;verticalAlign=middle;rotation=90;" vertex="1" parent="pTTNuhvIKUyOt209v0Gt-200">
          <mxGeometry x="40" y="-10" width="40" height="120" as="geometry" />
        </mxCell>
        <mxCell id="pTTNuhvIKUyOt209v0Gt-204" value="Historic" style="rounded=0;whiteSpace=wrap;html=1;horizontal=0;" vertex="1" parent="pTTNuhvIKUyOt209v0Gt-200">
          <mxGeometry x="49.379999999999995" y="70" width="27.5" height="60" as="geometry" />
        </mxCell>
        <mxCell id="pTTNuhvIKUyOt209v0Gt-205" value="Futures" style="rounded=0;whiteSpace=wrap;html=1;horizontal=0;" vertex="1" parent="pTTNuhvIKUyOt209v0Gt-200">
          <mxGeometry x="76.88" y="70" width="27.5" height="60" as="geometry" />
        </mxCell>
        <mxCell id="pTTNuhvIKUyOt209v0Gt-206" value="" style="endArrow=classic;html=1;rounded=0;entryX=0.75;entryY=0;entryDx=0;entryDy=0;exitX=0.5;exitY=1;exitDx=0;exitDy=0;" edge="1" parent="pTTNuhvIKUyOt209v0Gt-186" source="pTTNuhvIKUyOt209v0Gt-187" target="pTTNuhvIKUyOt209v0Gt-201">
          <mxGeometry width="50" height="50" relative="1" as="geometry">
            <mxPoint x="316.88" y="60" as="sourcePoint" />
            <mxPoint x="276.88" y="110" as="targetPoint" />
          </mxGeometry>
        </mxCell>
        <mxCell id="pTTNuhvIKUyOt209v0Gt-207" value="" style="endArrow=classic;html=1;rounded=0;entryX=0.75;entryY=0;entryDx=0;entryDy=0;exitX=0.833;exitY=1.067;exitDx=0;exitDy=0;exitPerimeter=0;" edge="1" parent="pTTNuhvIKUyOt209v0Gt-186">
          <mxGeometry width="50" height="50" relative="1" as="geometry">
            <mxPoint x="270.00000000000006" y="60" as="sourcePoint" />
            <mxPoint x="366.29" y="85.98000000000002" as="targetPoint" />
          </mxGeometry>
        </mxCell>
        <mxCell id="pTTNuhvIKUyOt209v0Gt-208" value="" style="endArrow=classic;html=1;rounded=0;entryX=0.75;entryY=0;entryDx=0;entryDy=0;exitX=0;exitY=1;exitDx=0;exitDy=0;" edge="1" parent="pTTNuhvIKUyOt209v0Gt-186" source="pTTNuhvIKUyOt209v0Gt-187" target="pTTNuhvIKUyOt209v0Gt-189">
          <mxGeometry width="50" height="50" relative="1" as="geometry">
            <mxPoint x="116.88" y="60" as="sourcePoint" />
            <mxPoint x="76.88" y="110" as="targetPoint" />
          </mxGeometry>
        </mxCell>
        <mxCell id="pTTNuhvIKUyOt209v0Gt-209" value="" style="endArrow=classic;html=1;rounded=0;fillColor=#008a00;strokeColor=#005700;" edge="1" parent="pTTNuhvIKUyOt209v0Gt-186">
          <mxGeometry width="50" height="50" relative="1" as="geometry">
            <mxPoint x="270" y="29.5" as="sourcePoint" />
            <mxPoint x="370" y="-40" as="targetPoint" />
          </mxGeometry>
        </mxCell>
        <mxCell id="pTTNuhvIKUyOt209v0Gt-210" value="" style="group" vertex="1" connectable="0" parent="pTTNuhvIKUyOt209v0Gt-182">
          <mxGeometry x="450" y="150" width="270" height="220" as="geometry" />
        </mxCell>
        <mxCell id="pTTNuhvIKUyOt209v0Gt-211" value="System Information" style="rounded=0;whiteSpace=wrap;html=1;" vertex="1" parent="pTTNuhvIKUyOt209v0Gt-210">
          <mxGeometry x="100" width="70" height="60" as="geometry" />
        </mxCell>
        <mxCell id="pTTNuhvIKUyOt209v0Gt-212" value="" style="group" vertex="1" connectable="0" parent="pTTNuhvIKUyOt209v0Gt-210">
          <mxGeometry x="150" y="90" width="120" height="130" as="geometry" />
        </mxCell>
        <mxCell id="pTTNuhvIKUyOt209v0Gt-213" value="Market Prices" style="rounded=0;whiteSpace=wrap;html=1;" vertex="1" parent="pTTNuhvIKUyOt209v0Gt-212">
          <mxGeometry x="11.25" width="100" height="30" as="geometry" />
        </mxCell>
        <mxCell id="pTTNuhvIKUyOt209v0Gt-214" value="Current" style="rounded=0;whiteSpace=wrap;html=1;horizontal=0;" vertex="1" parent="pTTNuhvIKUyOt209v0Gt-212">
          <mxGeometry x="15.629999999999995" y="70" width="27.5" height="60" as="geometry" />
        </mxCell>
        <mxCell id="pTTNuhvIKUyOt209v0Gt-215" value="" style="shape=curlyBracket;whiteSpace=wrap;html=1;rounded=1;labelPosition=left;verticalLabelPosition=middle;align=right;verticalAlign=middle;rotation=90;" vertex="1" parent="pTTNuhvIKUyOt209v0Gt-212">
          <mxGeometry x="40" y="-10" width="40" height="120" as="geometry" />
        </mxCell>
        <mxCell id="pTTNuhvIKUyOt209v0Gt-216" value="Historic" style="rounded=0;whiteSpace=wrap;html=1;horizontal=0;" vertex="1" parent="pTTNuhvIKUyOt209v0Gt-212">
          <mxGeometry x="49.379999999999995" y="70" width="27.5" height="60" as="geometry" />
        </mxCell>
        <mxCell id="pTTNuhvIKUyOt209v0Gt-217" value="Futures" style="rounded=0;whiteSpace=wrap;html=1;horizontal=0;" vertex="1" parent="pTTNuhvIKUyOt209v0Gt-212">
          <mxGeometry x="76.88" y="70" width="27.5" height="60" as="geometry" />
        </mxCell>
        <mxCell id="pTTNuhvIKUyOt209v0Gt-218" value="" style="group" vertex="1" connectable="0" parent="pTTNuhvIKUyOt209v0Gt-210">
          <mxGeometry y="90" width="120" height="130" as="geometry" />
        </mxCell>
        <mxCell id="pTTNuhvIKUyOt209v0Gt-219" value="Grid State" style="rounded=0;whiteSpace=wrap;html=1;" vertex="1" parent="pTTNuhvIKUyOt209v0Gt-218">
          <mxGeometry x="11.25" width="100" height="30" as="geometry" />
        </mxCell>
        <mxCell id="pTTNuhvIKUyOt209v0Gt-220" value="Current" style="rounded=0;whiteSpace=wrap;html=1;horizontal=0;" vertex="1" parent="pTTNuhvIKUyOt209v0Gt-218">
          <mxGeometry x="15.629999999999995" y="70" width="27.5" height="60" as="geometry" />
        </mxCell>
        <mxCell id="pTTNuhvIKUyOt209v0Gt-221" value="" style="shape=curlyBracket;whiteSpace=wrap;html=1;rounded=1;labelPosition=left;verticalLabelPosition=middle;align=right;verticalAlign=middle;rotation=90;" vertex="1" parent="pTTNuhvIKUyOt209v0Gt-218">
          <mxGeometry x="40" y="-10" width="40" height="120" as="geometry" />
        </mxCell>
        <mxCell id="pTTNuhvIKUyOt209v0Gt-222" value="Historic" style="rounded=0;whiteSpace=wrap;html=1;horizontal=0;" vertex="1" parent="pTTNuhvIKUyOt209v0Gt-218">
          <mxGeometry x="49.379999999999995" y="70" width="27.5" height="60" as="geometry" />
        </mxCell>
        <mxCell id="pTTNuhvIKUyOt209v0Gt-223" value="Futures" style="rounded=0;whiteSpace=wrap;html=1;horizontal=0;" vertex="1" parent="pTTNuhvIKUyOt209v0Gt-218">
          <mxGeometry x="76.88" y="70" width="27.5" height="60" as="geometry" />
        </mxCell>
        <mxCell id="pTTNuhvIKUyOt209v0Gt-224" value="" style="endArrow=classic;html=1;rounded=0;entryX=0.75;entryY=0;entryDx=0;entryDy=0;" edge="1" parent="pTTNuhvIKUyOt209v0Gt-218" target="pTTNuhvIKUyOt209v0Gt-219">
          <mxGeometry width="50" height="50" relative="1" as="geometry">
            <mxPoint x="116.88" y="-30" as="sourcePoint" />
            <mxPoint x="76.88" y="20" as="targetPoint" />
          </mxGeometry>
        </mxCell>
        <mxCell id="pTTNuhvIKUyOt209v0Gt-225" value="" style="endArrow=classic;html=1;rounded=0;entryX=0.25;entryY=0;entryDx=0;entryDy=0;exitX=0.75;exitY=1;exitDx=0;exitDy=0;" edge="1" parent="pTTNuhvIKUyOt209v0Gt-210" source="pTTNuhvIKUyOt209v0Gt-211" target="pTTNuhvIKUyOt209v0Gt-213">
          <mxGeometry width="50" height="50" relative="1" as="geometry">
            <mxPoint x="170" y="70" as="sourcePoint" />
            <mxPoint x="113" y="90" as="targetPoint" />
          </mxGeometry>
        </mxCell>
        <mxCell id="pTTNuhvIKUyOt209v0Gt-226" value="" style="endArrow=classic;html=1;rounded=0;fillColor=#008a00;strokeColor=#005700;" edge="1" parent="pTTNuhvIKUyOt209v0Gt-210">
          <mxGeometry width="50" height="50" relative="1" as="geometry">
            <mxPoint x="100" y="20" as="sourcePoint" />
            <mxPoint x="-80" y="50" as="targetPoint" />
          </mxGeometry>
        </mxCell>
        <mxCell id="pTTNuhvIKUyOt209v0Gt-227" value="API calling" style="text;html=1;align=center;verticalAlign=middle;whiteSpace=wrap;rounded=0;fillColor=#a20025;fontColor=#ffffff;strokeColor=#6F0000;" vertex="1" parent="pTTNuhvIKUyOt209v0Gt-210">
          <mxGeometry x="120" y="50" width="30" height="40" as="geometry" />
        </mxCell>
        <mxCell id="pTTNuhvIKUyOt209v0Gt-228" value="" style="endArrow=classic;html=1;rounded=0;" edge="1" parent="pTTNuhvIKUyOt209v0Gt-182">
          <mxGeometry width="50" height="50" relative="1" as="geometry">
            <mxPoint x="330" y="100" as="sourcePoint" />
            <mxPoint x="220" y="150" as="targetPoint" />
          </mxGeometry>
        </mxCell>
        <mxCell id="pTTNuhvIKUyOt209v0Gt-229" value="" style="endArrow=classic;html=1;rounded=0;entryX=0.5;entryY=0;entryDx=0;entryDy=0;" edge="1" parent="pTTNuhvIKUyOt209v0Gt-182" target="pTTNuhvIKUyOt209v0Gt-211">
          <mxGeometry width="50" height="50" relative="1" as="geometry">
            <mxPoint x="370" y="100" as="sourcePoint" />
            <mxPoint x="260" y="150" as="targetPoint" />
          </mxGeometry>
        </mxCell>
        <mxCell id="pTTNuhvIKUyOt209v0Gt-230" value="" style="endArrow=classic;html=1;rounded=0;fillColor=#008a00;strokeColor=#005700;" edge="1" parent="pTTNuhvIKUyOt209v0Gt-182">
          <mxGeometry width="50" height="50" relative="1" as="geometry">
            <mxPoint x="369" y="200" as="sourcePoint" />
            <mxPoint x="530" y="660" as="targetPoint" />
          </mxGeometry>
        </mxCell>
        <mxCell id="pTTNuhvIKUyOt209v0Gt-231" value="" style="shape=curlyBracket;whiteSpace=wrap;html=1;rounded=1;labelPosition=left;verticalLabelPosition=middle;align=right;verticalAlign=middle;rotation=-90;size=0.5;" vertex="1" parent="pTTNuhvIKUyOt209v0Gt-182">
          <mxGeometry x="127.5" y="300" width="155" height="410" as="geometry" />
        </mxCell>
        <mxCell id="pTTNuhvIKUyOt209v0Gt-232" value="&lt;h1&gt;Nomination Interface&lt;/h1&gt;&lt;p&gt;&lt;/p&gt;&lt;ul&gt;&lt;li&gt;User uploades data to update their balance overview&lt;/li&gt;&lt;/ul&gt;&lt;p&gt;&lt;/p&gt;" style="text;html=1;spacing=5;spacingTop=-20;whiteSpace=wrap;overflow=hidden;rounded=0;align=center;fillColor=#0050ef;fontColor=#ffffff;strokeColor=#001DBC;" vertex="1" parent="pTTNuhvIKUyOt209v0Gt-182">
          <mxGeometry x="70" y="530" width="270" height="90" as="geometry" />
        </mxCell>
        <mxCell id="pTTNuhvIKUyOt209v0Gt-233" value="&lt;h1&gt;Notification Interface&lt;/h1&gt;&lt;p&gt;&lt;/p&gt;&lt;ul&gt;&lt;li&gt;The system compiles user balance against systen state and notifies user of imbalances&lt;/li&gt;&lt;li&gt;Pricing notifications&lt;/li&gt;&lt;li&gt;System State notification&lt;/li&gt;&lt;/ul&gt;&lt;p&gt;&lt;/p&gt;" style="text;html=1;spacing=5;spacingTop=-20;whiteSpace=wrap;overflow=hidden;rounded=0;align=center;fillColor=#008a00;fontColor=#ffffff;strokeColor=#005700;" vertex="1" parent="pTTNuhvIKUyOt209v0Gt-182">
          <mxGeometry x="390" y="660" width="270" height="140" as="geometry" />
        </mxCell>
        <mxCell id="pTTNuhvIKUyOt209v0Gt-234" value="Sign In / Create Account" style="rounded=0;whiteSpace=wrap;html=1;" vertex="1" parent="pTTNuhvIKUyOt209v0Gt-182">
          <mxGeometry x="282.5" y="40" width="120" height="60" as="geometry" />
        </mxCell>
        <mxCell id="pTTNuhvIKUyOt209v0Gt-235" value="Power Side" style="rounded=0;whiteSpace=wrap;html=1;" vertex="1" parent="pTTNuhvIKUyOt209v0Gt-182">
          <mxGeometry x="282.5" y="-50" width="120" height="60" as="geometry" />
        </mxCell>
        <mxCell id="pTTNuhvIKUyOt209v0Gt-236" value="Balancing mechanism - 30 Minutes&lt;div&gt;&lt;br&gt;&lt;/div&gt;" style="shape=crossbar;whiteSpace=wrap;html=1;rounded=1;verticalAlign=top;fontColor=#FF0000;" vertex="1" parent="pTTNuhvIKUyOt209v0Gt-182">
          <mxGeometry x="179" y="-80" width="310" height="40" as="geometry" />
        </mxCell>
        <mxCell id="pTTNuhvIKUyOt209v0Gt-237" value="" style="endArrow=classic;html=1;rounded=0;" edge="1" parent="pTTNuhvIKUyOt209v0Gt-182">
          <mxGeometry width="50" height="50" relative="1" as="geometry">
            <mxPoint x="340" y="10" as="sourcePoint" />
            <mxPoint x="340" y="40" as="targetPoint" />
          </mxGeometry>
        </mxCell>
        <mxCell id="pTTNuhvIKUyOt209v0Gt-243" value="Very detailed user set-up&lt;br&gt;&lt;ul&gt;&lt;li&gt;location based Grid input/output&lt;/li&gt;&lt;/ul&gt;" style="text;html=1;align=center;verticalAlign=middle;whiteSpace=wrap;rounded=0;fillColor=#6a00ff;fontColor=#ffffff;strokeColor=#3700CC;" vertex="1" parent="pTTNuhvIKUyOt209v0Gt-182">
          <mxGeometry x="410" y="20" width="180" height="60" as="geometry" />
        </mxCell>
        <mxCell id="pTTNuhvIKUyOt209v0Gt-239" value="" style="shape=flexArrow;endArrow=classic;html=1;rounded=0;" edge="1" parent="1">
          <mxGeometry width="50" height="50" relative="1" as="geometry">
            <mxPoint x="720" y="80" as="sourcePoint" />
            <mxPoint x="580" y="150" as="targetPoint" />
          </mxGeometry>
        </mxCell>
        <mxCell id="pTTNuhvIKUyOt209v0Gt-240" value="" style="shape=flexArrow;endArrow=classic;html=1;rounded=0;" edge="1" parent="1">
          <mxGeometry width="50" height="50" relative="1" as="geometry">
            <mxPoint x="930" y="90" as="sourcePoint" />
            <mxPoint x="1030" y="160" as="targetPoint" />
          </mxGeometry>
        </mxCell>
        <mxCell id="pTTNuhvIKUyOt209v0Gt-241" value="&lt;ul style=&quot;font-size: 25px;&quot;&gt;&lt;li style=&quot;font-size: 25px;&quot;&gt;Should I stick to just one domain Gas/Power?&lt;br&gt;&lt;br&gt;&lt;/li&gt;&lt;li style=&quot;font-size: 25px;&quot;&gt;Nomination - how do I get users to upload data?&lt;br&gt;&lt;br&gt;&lt;/li&gt;&lt;li style=&quot;font-size: 25px;&quot;&gt;Notification - how best to notify user. FTP, eMail, Bulletin Board system?&lt;br&gt;&lt;br&gt;&lt;/li&gt;&lt;li style=&quot;font-size: 25px;&quot;&gt;&lt;br&gt;&lt;/li&gt;&lt;li style=&quot;font-size: 25px;&quot;&gt;Value 3&lt;/li&gt;&lt;/ul&gt;" style="text;strokeColor=none;fillColor=none;html=1;whiteSpace=wrap;verticalAlign=middle;overflow=hidden;fontSize=25;" vertex="1" parent="1">
          <mxGeometry x="1750" y="110" width="400" height="590" as="geometry" />
        </mxCell>
      </root>
    </mxGraphModel>
  </diagram>
</mxfile>
